<svg data-v-423bf9ae="" xmlns="http://www.w3.org/2000/svg" viewBox="0 0 270.9063608493349 60" class="font"><!----><!----><!----><g data-v-423bf9ae="" id="c29c1c14-3340-4d02-a724-a0f92af2c9ed" fill="black" transform="matrix(4.531722132721215,0,0,4.531722132721215,-2.8096705972668303,-15.498490993323834)"><path d="M5.89 7.18C5.89 7.46 5.75 7.60 5.47 7.60L3.04 7.60L3.04 6.02L5.47 6.02C5.75 6.02 5.89 6.16 5.89 6.44ZM8.37 14.06C8.33 13.92 8.30 13.79 8.30 13.41L8.30 10.26C8.30 9.42 7.94 8.92 7.10 8.74C7.88 8.60 8.27 8.05 8.27 7.08L8.27 5.40C8.27 4.07 7.63 3.42 6.34 3.42L0.62 3.42L0.62 14.06L3.04 14.06L3.04 9.86L5.47 9.86C5.75 9.86 5.89 10.00 5.89 10.28L5.89 13.50C5.89 13.76 5.92 13.93 5.96 14.06ZM14.35 11.52C14.35 11.70 14.25 11.80 14.07 11.80L12.03 11.80C11.84 11.80 11.75 11.70 11.75 11.52L11.75 10.95C11.75 10.77 11.84 10.67 12.03 10.67L14.07 10.67C14.25 10.67 14.35 10.77 14.35 10.95ZM14.88 14.06C16.14 14.06 16.77 13.41 16.77 12.12L16.77 7.77C16.77 6.48 16.11 5.84 14.81 5.84L9.66 5.84L9.66 8.13L13.93 8.13C14.21 8.13 14.35 8.27 14.35 8.55L14.35 9.17C14.22 9.11 14.07 9.07 13.89 9.07L11.13 9.07C9.94 9.07 9.34 9.70 9.34 10.98L9.34 12.19C9.34 13.44 9.94 14.06 11.13 14.06ZM23.42 16.66C24.70 16.66 25.34 16.00 25.34 14.71L25.34 5.84L19.85 5.84C18.55 5.84 17.89 6.45 17.89 7.71L17.89 11.30C17.89 12.59 18.54 13.23 19.81 13.23L22.92 13.23L22.92 14.15C22.92 14.43 22.78 14.57 22.50 14.57L18.23 14.57L18.23 16.66ZM22.92 11.03L20.73 11.03C20.45 11.03 20.31 10.89 20.31 10.61L20.31 8.65C20.31 8.36 20.45 8.20 20.73 8.20L22.92 8.20ZM32.19 14.06C33.35 14.06 33.92 13.41 33.92 12.12L33.92 10.85C33.92 9.67 33.35 9.09 32.19 9.09L29.11 9.09C28.95 9.09 28.87 9.02 28.87 8.86L28.87 8.37C28.87 8.20 28.95 8.12 29.11 8.12L33.70 8.12L33.70 5.84L28.41 5.84C27.13 5.84 26.50 6.48 26.50 7.76L26.50 9.00C26.50 10.23 26.89 10.79 28.17 10.79L31.23 10.79C31.39 10.79 31.47 10.86 31.47 11.02L31.47 11.51C31.47 11.68 31.39 11.76 31.23 11.76L26.60 11.76L26.60 14.06ZM43.11 14.06L43.11 5.28C43.11 4.03 42.45 3.42 41.15 3.42L37.02 3.42C35.71 3.42 35.06 4.03 35.06 5.28L35.06 14.06L37.46 14.06L37.46 9.69L40.68 9.69L40.68 14.06ZM40.68 7.45L37.46 7.45L37.46 6.44C37.46 6.16 37.60 6.02 37.88 6.02L40.26 6.02C40.54 6.02 40.68 6.16 40.68 6.44ZM49.85 14.06C51.13 14.06 51.77 13.41 51.77 12.12L51.77 7.71C51.77 6.45 51.11 5.84 49.81 5.84L44.32 5.84L44.32 16.66L46.75 16.66L46.75 14.06ZM49.35 11.20C49.35 11.48 49.21 11.62 48.93 11.62L46.75 11.62L46.75 8.26L48.93 8.26C49.21 8.26 49.35 8.41 49.35 8.71ZM58.48 14.06C59.75 14.06 60.40 13.41 60.40 12.12L60.40 7.71C60.40 6.45 59.74 5.84 58.44 5.84L52.95 5.84L52.95 16.66L55.37 16.66L55.37 14.06ZM57.97 11.20C57.97 11.48 57.83 11.62 57.55 11.62L55.37 11.62L55.37 8.26L57.55 8.26C57.83 8.26 57.97 8.41 57.97 8.71Z"></path></g><!----><!----></svg>